<svg xmlns="http://www.w3.org/2000/svg" viewBox="0 0 512 512">
  <defs>
    <linearGradient id="bg" x1="0" y1="0" x2="1" y2="1">
      <stop offset="0%" stop-color="#1e3a5f"/>
      <stop offset="100%" stop-color="#0a1628"/>
    </linearGradient>
  </defs>
  <rect width="512" height="512" rx="96" fill="url(#bg)"/>
  <!-- Baseball -->
  <circle cx="256" cy="200" r="100" fill="#f5f5f4" stroke="#dc2626" stroke-width="3"/>
  <path d="M200 130 C220 170, 220 230, 200 270" fill="none" stroke="#dc2626" stroke-width="4" stroke-linecap="round"/>
  <path d="M312 130 C292 170, 292 230, 312 270" fill="none" stroke="#dc2626" stroke-width="4" stroke-linecap="round"/>
  <!-- Stitches left -->
  <line x1="196" y1="145" x2="208" y2="152" stroke="#dc2626" stroke-width="2.5" stroke-linecap="round"/>
  <line x1="192" y1="165" x2="206" y2="170" stroke="#dc2626" stroke-width="2.5" stroke-linecap="round"/>
  <line x1="191" y1="185" x2="205" y2="188" stroke="#dc2626" stroke-width="2.5" stroke-linecap="round"/>
  <line x1="192" y1="205" x2="206" y2="206" stroke="#dc2626" stroke-width="2.5" stroke-linecap="round"/>
  <line x1="194" y1="225" x2="208" y2="224" stroke="#dc2626" stroke-width="2.5" stroke-linecap="round"/>
  <line x1="198" y1="245" x2="210" y2="240" stroke="#dc2626" stroke-width="2.5" stroke-linecap="round"/>
  <!-- Stitches right -->
  <line x1="316" y1="145" x2="304" y2="152" stroke="#dc2626" stroke-width="2.5" stroke-linecap="round"/>
  <line x1="320" y1="165" x2="306" y2="170" stroke="#dc2626" stroke-width="2.5" stroke-linecap="round"/>
  <line x1="321" y1="185" x2="307" y2="188" stroke="#dc2626" stroke-width="2.5" stroke-linecap="round"/>
  <line x1="320" y1="205" x2="306" y2="206" stroke="#dc2626" stroke-width="2.5" stroke-linecap="round"/>
  <line x1="318" y1="225" x2="304" y2="224" stroke="#dc2626" stroke-width="2.5" stroke-linecap="round"/>
  <line x1="314" y1="245" x2="302" y2="240" stroke="#dc2626" stroke-width="2.5" stroke-linecap="round"/>
  <!-- Speed lines -->
  <line x1="110" y1="160" x2="140" y2="175" stroke="#f87171" stroke-width="3" stroke-linecap="round" opacity="0.6"/>
  <line x1="100" y1="200" x2="145" y2="200" stroke="#f87171" stroke-width="3" stroke-linecap="round" opacity="0.4"/>
  <line x1="110" y1="240" x2="140" y2="225" stroke="#f87171" stroke-width="3" stroke-linecap="round" opacity="0.6"/>
  <!-- Text 超速報 -->
  <text x="256" y="380" text-anchor="middle" font-family="sans-serif" font-weight="900" font-size="72" fill="#ffffff" letter-spacing="4">超速報</text>
  <!-- Accent line -->
  <rect x="130" y="400" width="252" height="4" rx="2" fill="#ef4444"/>
</svg>
